<?xml version="1.0" standalone="no"?><svg xmlns="http://www.w3.org/2000/svg" viewBox="0 0 1440 320"><path fill="#0099ff" fill-opacity="1" d="M0,64L30,58.7C60,53,120,43,180,80C240,117,300,203,360,208C420,213,480,139,540,128C600,117,660,171,720,176C780,181,840,139,900,122.7C960,107,1020,117,1080,101.3C1140,85,1200,43,1260,53.3C1320,64,1380,128,1410,160L1440,192L1440,320L1410,320C1380,320,1320,320,1260,320C1200,320,1140,320,1080,320C1020,320,960,320,900,320C840,320,780,320,720,320C660,320,600,320,540,320C480,320,420,320,360,320C300,320,240,320,180,320C120,320,60,320,30,320L0,320Z"></path></svg>